# xmcd CD database file
#
# Track frame offsets:
#	150
#	10221
#	33290
#	49423
#	64077
#	82747
#	95728
#	109769
#	130544
#	141180
#	155531
#	181172
#	200542
#	214264
#	228280
#	242040
#	260264
#	276532
#	289764
#
# Disc length: 4230 seconds
#
# Revision: 0
# Processed by: cddbd v1.5.1PL0 Copyright (c) Steve Scherf et al.
# Submitted via: CDex 1.51
#
DISCID=0f108413
DTITLE=The Royal Dixie Jazz Band - Gold Coast Live
DYEAR=2005
DGENRE=Jazz
TTITLE0=01 - Bulge Call Rag
TTITLE1=02 - Getting Sentimental Over You
TTITLE2=03 - Tangerine
TTITLE3=04 - 720 in the Books
TTITLE4=05 - Dream
TTITLE5=06 - Bugler's Holiday
TTITLE6=07 - Audobon Zoo (They All Asked for You)
TTITLE7=08 - East of the sun
TTITLE8=09 - Floatin' Down to Cotton Town
TTITLE9=10 - Young Man with a Horn
TTITLE10=11 - Sj's Big Band Medley #2
TTITLE11=12 - Somewhere Over the Rainbow
TTITLE12=13 - Big Daddy's Albany Bound
TTITLE13=14 - The Look of Love
TTITLE14=15 - Day by Day
TTITLE15=16 - Wabash Blues
TTITLE16=17 - For Once in My Life
TTITLE17=18 - I'm in the Mood for Love
TTITLE18=19 - She'll be Comin' Round the Mountain
EXTD=YEAR: 2005
EXTT0=
EXTT1=
EXTT2=
EXTT3=
EXTT4=
EXTT5=
EXTT6=
EXTT7=
EXTT8=
EXTT9=
EXTT10=
EXTT11=
EXTT12=
EXTT13=
EXTT14=
EXTT15=
EXTT16=
EXTT17=
EXTT18=
PLAYORDER=
